<svg width="31" height="27" viewBox="0 0 31 27" fill="none" xmlns="http://www.w3.org/2000/svg">
<mask id="path-1-inside-1_550_235" fill="white">
<path fill-rule="evenodd" clip-rule="evenodd" d="M6 6.14048C7.30976 6.31792 8.57059 6.8276 9.64303 7.64043C11.5357 6.16604 14.2895 5.66802 16.6933 6.44519C21.2682 7.93007 22.9098 12.9482 21.5154 17.3386C20.8271 19.5436 19.383 21.5881 17.7313 23.3524C17.9938 23.5073 18.1411 23.5881 18.1411 23.5881C18.1411 23.5881 27.8411 18.2278 30.0134 11.2687C31.4079 6.87829 29.7663 1.86012 25.1914 0.375245C22.7875 -0.401923 20.0337 0.0960935 18.1411 1.57048C16.1405 0.0541551 13.4842 -0.407166 11.0778 0.375245C8.26981 1.28663 6.5708 3.52909 6 6.14048Z"/>
</mask>
<path d="M6 6.14048L4.5346 5.82017C4.44517 6.22931 4.53086 6.65721 4.77093 7.00036C5.01101 7.34352 5.38362 7.57068 5.79862 7.6269L6 6.14048ZM9.64303 7.64043L8.73697 8.83587C9.27864 9.24641 10.0287 9.24144 10.5648 8.82375L9.64303 7.64043ZM16.6933 6.44519L17.1564 5.01846L17.1548 5.01793L16.6933 6.44519ZM21.5154 17.3386L20.0857 16.8846L20.0835 16.8917L21.5154 17.3386ZM17.7313 23.3524L16.6363 22.3272C16.3252 22.6595 16.1818 23.115 16.2465 23.5656C16.3112 24.0161 16.577 24.4129 16.9689 24.6442L17.7313 23.3524ZM18.1411 23.5881L17.4199 24.9033C17.8707 25.1505 18.4166 25.1496 18.8666 24.9009L18.1411 23.5881ZM30.0134 11.2687L28.5838 10.8146L28.5815 10.8217L30.0134 11.2687ZM25.1914 0.375245L25.6544 -1.05149L25.6528 -1.05202L25.1914 0.375245ZM18.1411 1.57048L17.235 2.76592C17.7767 3.17647 18.5267 3.1715 19.0629 2.75381L18.1411 1.57048ZM11.0778 0.375245L11.5408 1.80198L11.5416 1.80174L11.0778 0.375245ZM5.79862 7.6269C6.85786 7.7704 7.87484 8.18242 8.73697 8.83587L10.5491 6.445C9.26634 5.47277 7.76166 4.86544 6.20138 4.65406L5.79862 7.6269ZM10.5648 8.82375C12.059 7.65977 14.2934 7.24574 16.2319 7.87245L17.1548 5.01793C14.2855 4.0903 11.0123 4.67231 8.72121 6.45711L10.5648 8.82375ZM16.2303 7.87192C19.7934 9.02841 21.3097 13.0311 20.0857 16.8846L22.945 17.7927C24.51 12.8654 22.7431 6.83173 17.1564 5.01846L16.2303 7.87192ZM20.0835 16.8917C19.4888 18.7969 18.208 20.6484 16.6363 22.3272L18.8263 24.3776C20.5581 22.5278 22.1654 20.2904 22.9472 17.7856L20.0835 16.8917ZM18.1411 23.5881C18.8622 22.2728 18.8622 22.2728 18.8623 22.2728C18.8623 22.2728 18.8623 22.2728 18.8623 22.2728C18.8624 22.2729 18.8624 22.2729 18.8625 22.2729C18.8626 22.273 18.8626 22.273 18.8627 22.273C18.8628 22.2731 18.8629 22.2732 18.863 22.2732C18.8631 22.2732 18.863 22.2732 18.8629 22.2731C18.8625 22.2729 18.8616 22.2724 18.8601 22.2716C18.8572 22.27 18.852 22.2671 18.8447 22.2631C18.8301 22.2549 18.8068 22.2419 18.7754 22.224C18.7127 22.1884 18.6174 22.1336 18.4937 22.0606L16.9689 24.6442C17.1076 24.7261 17.2173 24.7892 17.2938 24.8326C17.332 24.8543 17.362 24.8711 17.3832 24.883C17.3938 24.8889 17.4022 24.8935 17.4083 24.8969C17.4114 24.8986 17.4139 24.9 17.4159 24.9011C17.4168 24.9016 17.4177 24.9021 17.4183 24.9025C17.4187 24.9026 17.419 24.9028 17.4192 24.903C17.4194 24.903 17.4195 24.9031 17.4196 24.9032C17.4197 24.9032 17.4197 24.9032 17.4198 24.9033C17.4198 24.9033 17.4199 24.9033 17.4199 24.9033C17.4199 24.9033 17.4199 24.9033 18.1411 23.5881ZM28.5815 10.8217C27.6317 13.8647 24.9562 16.7107 22.3118 18.8779C21.017 19.9391 19.7841 20.7939 18.8749 21.383C18.4213 21.6769 18.0505 21.9033 17.7957 22.0547C17.6685 22.1304 17.5703 22.1872 17.5055 22.2243C17.4731 22.2428 17.4491 22.2564 17.4339 22.2649C17.4263 22.2692 17.421 22.2722 17.4179 22.2739C17.4164 22.2747 17.4154 22.2753 17.415 22.2755C17.4148 22.2756 17.4148 22.2756 17.4149 22.2756C17.4149 22.2756 17.4151 22.2755 17.4151 22.2754C17.4153 22.2753 17.4156 22.2752 18.1411 23.5881C18.8666 24.9009 18.8669 24.9008 18.8673 24.9006C18.8674 24.9005 18.8678 24.9002 18.8682 24.9C18.8689 24.8997 18.8697 24.8992 18.8707 24.8987C18.8726 24.8976 18.8752 24.8962 18.8783 24.8944C18.8846 24.8909 18.8932 24.8861 18.904 24.88C18.9257 24.8678 18.9564 24.8505 18.9955 24.8281C19.0739 24.7832 19.1863 24.7181 19.3285 24.6336C19.6127 24.4647 20.0167 24.2179 20.5063 23.9006C21.4839 23.2672 22.8117 22.347 24.2134 21.1982C26.9621 18.9455 30.2228 15.6319 31.4453 11.7157L28.5815 10.8217ZM24.7283 1.80198C28.2914 2.95846 29.8077 6.96115 28.5838 10.8146L31.443 11.7228C33.008 6.79544 31.2411 0.761781 25.6544 -1.05149L24.7283 1.80198ZM19.0629 2.75381C20.5571 1.58982 22.7915 1.1758 24.7299 1.80251L25.6528 -1.05202C22.7836 -1.97964 19.5104 -1.39764 17.2193 0.387162L19.0629 2.75381ZM11.5416 1.80174C13.4775 1.17233 15.6226 1.54382 17.235 2.76592L19.0471 0.37505C16.6583 -1.43551 13.491 -1.98666 10.614 -1.05125L11.5416 1.80174ZM7.4654 6.46079C7.93949 4.29186 9.31164 2.52551 11.5408 1.80198L10.6147 -1.05149C7.22797 0.0477463 5.20211 2.76632 4.5346 5.82017L7.4654 6.46079Z" fill="#FF5A78" mask="url(#path-1-inside-1_550_235)"/>
<path d="M9.73674 25.7212C9.93876 25.6004 10.2171 25.4294 10.5512 25.213C11.2775 24.7424 12.2627 24.0593 13.2985 23.2105C15.3973 21.4903 17.59 19.1803 18.3778 16.6566L18.3789 16.653C19.3924 13.4619 18.1616 10.0153 15.0626 9.0092C13.4011 8.47219 11.491 8.82268 10.1989 9.82925C9.93076 10.0381 9.55575 10.0406 9.28492 9.8353C7.90248 8.78751 6.06483 8.46889 4.40376 9.00895L4.4034 9.00907C1.30573 10.0145 0.0810754 13.4596 1.09573 16.6522L9.73674 25.7212ZM9.73674 25.7212C9.53652 25.6021 9.26139 25.434 8.93131 25.2211C8.20977 24.7557 7.23008 24.0788 6.19806 23.2342C4.10842 21.5239 1.91214 19.2121 1.09577 16.6523L9.73674 25.7212Z" stroke="#FF5A78" stroke-width="1.5" stroke-linecap="round" stroke-linejoin="round"/>
</svg>
