<svg width="31" height="27" viewBox="0 0 31 27" fill="none" xmlns="http://www.w3.org/2000/svg">
<path fill-rule="evenodd" clip-rule="evenodd" d="M5.99997 6.1405C7.30973 6.31794 8.57056 6.82762 9.643 7.64045C11.5357 6.16606 14.2894 5.66804 16.6933 6.44521C21.2682 7.93009 22.9098 12.9483 21.5153 17.3387C20.827 19.5436 19.383 21.5881 17.7313 23.3524C17.9937 23.5073 18.141 23.5881 18.141 23.5881C18.141 23.5881 27.8411 18.2278 30.0134 11.2687C31.4078 6.87831 29.7662 1.86014 25.1913 0.375264C22.7875 -0.401904 20.0337 0.0961131 18.141 1.5705C16.1404 0.0541747 13.4842 -0.407146 11.0777 0.375264C8.26978 1.28665 6.57077 3.52911 5.99997 6.1405Z" fill="#FF5A78"/>
<path fill-rule="evenodd" clip-rule="evenodd" d="M0.381185 16.8801C-0.718706 13.4203 0.566721 9.46583 4.17186 8.2957C6.06823 7.67914 8.1614 8.04268 9.73795 9.23759C11.2294 8.07572 13.3995 7.68327 15.2938 8.2957C18.8989 9.46583 20.1925 13.4203 19.0937 16.8801C17.3818 22.364 9.73795 26.5881 9.73795 26.5881C9.73795 26.5881 2.15044 22.4281 0.381185 16.8801Z" fill="#FF5A78"/>
</svg>
