<svg width="19" height="19" viewBox="0 0 19 19" fill="none" xmlns="http://www.w3.org/2000/svg">
<path d="M13.5825 1.75921C14.686 0.662046 16.47 0.667203 17.5672 1.77072L17.8289 2.03394C18.926 3.13745 18.9209 4.92145 17.8173 6.01861L14.0072 9.80684L17.7954 13.617C18.8925 14.7205 18.8874 16.5045 17.7839 17.6017L17.5207 17.8634C16.4171 18.9606 14.6331 18.9554 13.536 17.8519L9.74775 14.0417L5.97277 17.7949C4.86925 18.8921 3.08525 18.8869 1.98809 17.7834L1.72639 17.5202C0.629233 16.4167 0.634388 14.6327 1.73791 13.5355L5.51289 9.78229L1.75966 6.00731C0.6625 4.90379 0.667657 3.11979 1.77117 2.02263L2.03439 1.76094C3.13791 0.663777 4.92191 0.668932 6.01907 1.77245L9.77229 5.54743L13.5825 1.75921Z" fill="white"/>
</svg>
