<svg width="20" height="21" viewBox="0 0 20 21" fill="none" xmlns="http://www.w3.org/2000/svg">
<path d="M17.5428 0.790039H14.824C13.6496 0.790039 12.9468 1.49286 12.9468 2.6673V5.38609C12.9468 6.56054 13.6496 7.26335 14.824 7.26335H17.5428C18.7173 7.26335 19.4201 6.56054 19.4201 5.38609V2.6673C19.4201 1.49286 18.7173 0.790039 17.5428 0.790039ZM18.1347 4.19315C17.7925 5.28437 16.5996 5.87621 16.1834 5.87621C15.7673 5.87621 14.5836 5.30286 14.2322 4.19315C14.1767 4.0267 14.149 3.84174 14.149 3.66604C14.149 3.06495 14.4541 2.44536 15.0922 2.24191C15.4714 2.12169 15.8783 2.18643 16.1649 2.42686C16.4609 2.19567 16.8678 2.12169 17.2562 2.24191C18.1069 2.51009 18.3751 3.46259 18.1347 4.19315Z" fill="white"/>
<path d="M14.8239 8.65054C13.0206 8.65054 11.5595 7.18942 11.5595 5.38614V2.6396C11.5595 2.13099 11.1433 1.71484 10.6347 1.71484H4.6238C2.07146 1.71484 0 3.77706 0 6.32014V12.7657C0 15.318 2.07146 17.3895 4.6238 17.3895H6.01093C6.26987 17.3895 6.60278 17.556 6.75074 17.7594L8.13788 19.5997C8.74822 20.4135 9.74696 20.4135 10.3573 19.5997L11.7444 17.7594C11.9201 17.5282 12.1976 17.3895 12.4842 17.3895H13.8806C16.433 17.3895 18.4952 15.3273 18.4952 12.775V9.5753C18.4952 9.06668 18.079 8.65054 17.5704 8.65054H14.8239ZM5.54855 10.9624C5.03069 10.9624 4.6238 10.5463 4.6238 10.0377C4.6238 9.52906 5.03069 9.11292 5.54855 9.11292C6.05717 9.11292 6.47331 9.52906 6.47331 10.0377C6.47331 10.5463 6.06642 10.9624 5.54855 10.9624ZM9.24759 10.9624C8.72973 10.9624 8.32283 10.5463 8.32283 10.0377C8.32283 9.52906 8.72973 9.11292 9.24759 9.11292C9.75621 9.11292 10.1723 9.52906 10.1723 10.0377C10.1723 10.5463 9.76546 10.9624 9.24759 10.9624Z" fill="white"/>
</svg>
