<svg id="Layer_1" data-name="Layer 1" xmlns="http://www.w3.org/2000/svg" viewBox="0 0 395.22066 380.70868"><defs><style>.cls-1,.cls-2,.cls-3,.cls-5,.cls-6,.cls-7{fill:none;stroke-linecap:round;}.cls-1,.cls-2,.cls-3,.cls-4,.cls-5,.cls-6,.cls-7{stroke:#000;stroke-miterlimit:10;}.cls-1{stroke-width:6px;}.cls-3{stroke-width:9px;}.cls-4{stroke-width:3px;}.cls-5{stroke-width:4.2px;}.cls-6{stroke-width:5.5px;}.cls-7{stroke-width:4.5px;}</style></defs><title>Meety (Logo)</title><path class="cls-1" d="M272.18539,265.237" transform="translate(-58.73414 -58.15195)"/><path class="cls-2" d="M190.84654,230.8578" transform="translate(-58.73414 -58.15195)"/><path class="cls-2" d="M273.365,272.96145" transform="translate(-58.73414 -58.15195)"/><path class="cls-2" d="M272.18516,271.38433" transform="translate(-58.73414 -58.15195)"/><path d="M443.95469,317.727c-.27725,45.09095-28.74506,87.99628-71.16832,104.23374-42.64633,16.32284-91.8333,2.95838-121.16972-31.7688a108.11517,108.11517,0,0,1-25.08892-69.05546c-.03931-6.43259-10.0394-6.44664-10,0A119.192,119.192,0,0,0,294.1269,431.78761c47.32885,17.48142,101.157,1.66135,132.51661-37.55754A123.78031,123.78031,0,0,0,453.95469,317.727c.03957-6.436-9.96038-6.44323-10,0Z" transform="translate(-58.73414 -58.15195)"/><path class="cls-3" d="M418.43323,300.22854c.589.177.5902,1.06013,1.18154,1.25274,9.03048,2.94132,29.33992,8.42527,29.33992,15.79891" transform="translate(-58.73414 -58.15195)"/><path class="cls-3" d="M221.52773,320.66311c1.57763-6.66536,13.96988-15.61548,32.27586-21.51311" transform="translate(-58.73414 -58.15195)"/><path class="cls-3" d="M435.28685,336.13274c-20.39558,13.38719-57.40242,20.69972-102.156,20.69972-47.81451,0-74.97959-5.72962-99.27693-21.14741" transform="translate(-58.73414 -58.15195)"/><path class="cls-1" d="M335.14244,264.77084" transform="translate(-58.73414 -58.15195)"/><path class="cls-3" d="M371.87323,244.292a83.94706,83.94706,0,0,0-34.48449-7.36108c-26.117,0-46.30726,11.30251-49.35908,13.31258-29.70758,19.56668-34.66274,51.46414-35.40568,56.84509" transform="translate(-58.73414 -58.15195)"/><path class="cls-3" d="M419.61413,309.41972A77.292,77.292,0,0,0,408.0798,275.707" transform="translate(-58.73414 -58.15195)"/><path class="cls-3" d="M419.569,308.96442a19.13278,19.13278,0,0,1,14.91227,11.49885c0,10.37441-43.58265,20.53546-97.34456,20.53546s-100.05839-10.16105-100.05839-20.53546c0,0,5.91919-11.53335,15.54562-13.58878l.57281-3.17" transform="translate(-58.73414 -58.15195)"/><path class="cls-2" d="M253.80382,305.29737" transform="translate(-58.73414 -58.15195)"/><path class="cls-3" d="M298.31693,244.55446c-8.23222-15.86164-19.73953-42.98178-20.05888-75.48059-.31724-32.28339,9.46541-72.0033,20.76684-72.39743,11.638-.40587,23.1371,40.9524,26.90249,67.82976,4.20723,30.03125.127,56.51083-3.5693,73.1254" transform="translate(-58.73414 -58.15195)"/><path class="cls-3" d="M340.942,236.17566a157.14763,157.14763,0,0,1,8.82-41.75128c7.4652-20.41758,9.61657-31.23723,18.171-34.25745,12.01258-4.24117,28.43873,7.39941,36.81393,18.7274,10.3953,14.06026,9.58883,29.28188,7.55159,59.15121-1.42262,20.85821-3.535,51.829-12.97928,53.21327-9.16973,1.344-20.2799-25.9318-22.18275-30.60334A118.94422,118.94422,0,0,1,368.877,207.6706" transform="translate(-58.73414 -58.15195)"/><path class="cls-4" d="M294.48214,307.30271c1.56878-3.62285,13.16686-3.45806,14.69018,0,.86668,1.9674-1.43975,5.20042-3.53981,6.85149a6.52426,6.52426,0,0,1-3.71678,1.71286C297.7026,316.04721,293.26651,310.11,294.48214,307.30271Z" transform="translate(-58.73414 -58.15195)"/><path class="cls-5" d="M300.783,228.23139c-3.52918-9.92035-6.83117-18.72121-9.25309-31.519-4.67433-24.69981-2.88451-48.56212-.24244-63.87045" transform="translate(-58.73414 -58.15195)"/><path class="cls-5" d="M366.30175,172.37369a20.20776,20.20776,0,0,1,14.15922-1.32728c9.29509,2.61275,14.14738,11.25336,15.22115,13.27287" transform="translate(-58.73414 -58.15195)"/><path class="cls-5" d="M378.94079,214.85613a37.14967,37.14967,0,0,0,.40073,8.31051c1.21889,11.3873,4.72877,27.02688,7.29976,32.68992" transform="translate(-58.73414 -58.15195)"/><path class="cls-4" d="M345.75536,293.47255c-.09792-6.408-4.56035-11.59412-9.91145-12.504-9.28558-1.57883-15.28313,10.733-14.33619,11.81882.697.79927,5.36467-4.246,12.5663-4.11089C338.82069,288.76557,342.79488,291.07,345.75536,293.47255Z" transform="translate(-58.73414 -58.15195)"/><path class="cls-4" d="M295.24718,293.47255c-.09792-6.408-4.56035-11.59412-9.91145-12.504-9.28558-1.57883-15.28313,10.733-14.33619,11.81882.697.79927,5.36467-4.246,12.56631-4.11089C288.31251,288.76557,292.2867,291.07,295.24718,293.47255Z" transform="translate(-58.73414 -58.15195)"/><path d="M71.39376,287.498c2.90008,60.95185,52.36466,113.67933,114.09855,116.45271a120.90856,120.90856,0,0,0,60.494-13.51686c5.72736-2.93908.674-11.57059-5.04719-8.6347-28.01461,14.37611-61.51388,16.34951-90.7064,4.26652-24.867-10.29263-45.25245-30.00841-57.26476-53.98367a111.485,111.485,0,0,1-11.57416-44.584c-.30484-6.40683-10.3066-6.44383-10,0Z" transform="translate(-58.73414 -58.15195)"/><path class="cls-2" d="M76.296,282.33407" transform="translate(-58.73414 -58.15195)"/><path class="cls-6" d="M271.88826,264.20388" transform="translate(-58.73414 -58.15195)"/><path class="cls-3" d="M89.99475,301.18662c20.44169,13.38719,57.53219,20.69972,102.387,20.69972,9.93762,0,18.98528-.24638,27.30189-.77445" transform="translate(-58.73414 -58.15195)"/><path class="cls-3" d="M158.11243,208.07658a82.24907,82.24907,0,0,1,31.15122-6.09177c25.8219,0,45.784,11.30252,48.80132,13.31257,21.60071,14.38978,29.96548,35.44861,33.17183,47.725" transform="translate(-58.73414 -58.15195)"/><path class="cls-3" d="M95.18842,291.26468c12.35279,8.08005,49.398,14.78793,93.1783,14.78793a386.483,386.483,0,0,0,59.10075-4.3232" transform="translate(-58.73414 -58.15195)"/><path class="cls-6" d="M271.888,270.35125" transform="translate(-58.73414 -58.15195)"/><path class="cls-4" d="M231.11776,274.35659c-1.57233-3.62285-13.19663-3.45806-14.72339,0-.86863,1.9674,1.443,5.20042,3.54781,6.85149a6.54529,6.54529,0,0,0,3.72519,1.71286C227.89,283.1011,232.33614,277.16392,231.11776,274.35659Z" transform="translate(-58.73414 -58.15195)"/><path class="cls-4" d="M178.72863,264.52643c.09814-6.408,4.57066-11.59412,9.93386-12.504,9.30657-1.57882,15.31768,10.733,14.3686,11.81882-.69862.79928-5.3768-4.246-12.59471-4.11089C185.679,259.81945,181.69581,262.12386,178.72863,264.52643Z" transform="translate(-58.73414 -58.15195)"/><path class="cls-4" d="M228.351,264.52643c.09814-6.408,4.57066-11.59412,9.93385-12.504,9.30657-1.57882,15.31769,10.733,14.36861,11.81882-.69862.79928-5.3768-4.246-12.59473-4.11089C235.30134,259.81945,231.31817,262.12386,228.351,264.52643Z" transform="translate(-58.73414 -58.15195)"/><path class="cls-2" d="M95.18842,291.26468" transform="translate(-58.73414 -58.15195)"/><path class="cls-3" d="M177.42353,201.2667c0-11.28648.48447-28.51963-20.22127-22.89225-4.30314,1.16951-7.7713,1.5417-13.94537,4.83351-20.75739,11.06716-31.136,16.60073-34.499,18.96038-18.82719,13.21024-29.91552,20.99043-37.70152,35.73036-4.65232,8.80742-11.07088,20.95861-5.91073,33.10582,5.2761,12.42019,19.652,20.7069,33.0283,19.84132,9.95811-.64439,16.686-6.15222,22.77366-11.27894,10.07639-8.48578,18.11716-19.72392,31.02706-53.42092,4.28415-11.18235,11.1494-29.98844,16.41833-48.19783" transform="translate(-58.73414 -58.15195)"/><path class="cls-3" d="M223.72662,206.84328c10.68948-14.37079,22.97633-37.42238,28.74783-69.43907,5.73324-31.80445,2.87082-72.51658-8.07927-74.66237-11.27622-2.20969-29.4339,36.81056-37.62,62.74489-9.1467,28.97755-9.0483,57.81189-8.2367,74.78" transform="translate(-58.73414 -58.15195)"/><path class="cls-7" d="M88.48035,280.45327c-1.24141-.47784-11.1662-4.48371-14.15921-14.7307-2.58121-8.83718,1.05035-18.69687,9.20348-24.66538" transform="translate(-58.73414 -58.15195)"/><path class="cls-7" d="M152.63532,197.20764a62.18544,62.18544,0,0,1-4.60175,16.78616,63.19293,63.19293,0,0,1-7.0796,12.33268" transform="translate(-58.73414 -58.15195)"/><path class="cls-7" d="M244.21984,88.95408a227.27843,227.27843,0,0,1-1.06194,35.28518,222.179,222.179,0,0,1-15.45217,60.6357" transform="translate(-58.73414 -58.15195)"/></svg>