<svg width="25" height="29" viewBox="0 0 25 29" fill="none" xmlns="http://www.w3.org/2000/svg">
<path d="M17.7833 0H7.57363C3.1389 0 0.495117 3.06122 0.495117 8.19617V20.0178C0.495117 23.9819 2.06677 26.7046 4.83238 27.7344C5.63648 28.0588 6.56241 28.214 7.57363 28.214H17.7833C18.7945 28.214 19.7204 28.0588 20.5245 27.7344C23.2901 26.7046 24.8618 23.9819 24.8618 20.0178V8.19617C24.8618 3.06122 22.218 0 17.7833 0ZM23.0343 20.0178C23.0343 23.0367 22.0109 24.9412 19.9519 25.7312C18.7701 23.0367 15.9679 21.1182 12.6784 21.1182C9.38894 21.1182 6.59896 23.0226 5.405 25.7312H5.39281C3.3582 24.9694 2.32262 23.0508 2.32262 20.0319V8.19617C2.32262 4.21799 4.13793 2.11605 7.57363 2.11605H17.7833C21.219 2.11605 23.0343 4.21799 23.0343 8.19617V20.0178Z" fill="#FF5A78"/>
<path d="M12.6806 7.70166C10.0144 7.70166 7.85986 9.85618 7.85986 12.5224C7.85986 15.1886 10.0144 17.3566 12.6806 17.3566C15.3468 17.3566 17.5014 15.1886 17.5014 12.5224C17.5014 9.85618 15.3468 7.70166 12.6806 7.70166Z" fill="#FF5A78"/>
</svg>
