<svg width="20" height="19" viewBox="0 0 20 19" fill="none" xmlns="http://www.w3.org/2000/svg">
<path d="M18.7577 15.7503L12.398 9.39049L18.7577 3.03073C19.4443 2.34411 19.4443 1.2387 18.7577 0.552075C18.0711 -0.134546 16.9657 -0.134546 16.2791 0.552075L9.9193 6.91184L3.55954 0.552075C2.87292 -0.134546 1.7675 -0.134546 1.08088 0.552075C0.394263 1.2387 0.394263 2.34411 1.08088 3.03073L7.44065 9.39049L1.08088 15.7503C0.394263 16.4369 0.394263 17.5423 1.08088 18.2289C1.7675 18.9155 2.87292 18.9155 3.55954 18.2289L9.9193 11.8691L16.2791 18.2289C16.9657 18.9155 18.0711 18.9155 18.7577 18.2289C19.4395 17.5423 19.4395 16.432 18.7577 15.7503Z" fill="#293452"/>
</svg>
