<svg width="35" height="35" viewBox="0 0 35 35" fill="none" xmlns="http://www.w3.org/2000/svg">
<path d="M26.2556 0H8.75187C3.92084 0 0 3.90334 0 8.71687V19.1841V20.9345C0 25.748 3.92084 29.6514 8.75187 29.6514H11.3774C11.85 29.6514 12.4802 29.9664 12.7777 30.3515L15.4033 33.8348C16.5585 35.3751 18.449 35.3751 19.6042 33.8348L22.2298 30.3515C22.5623 29.9139 23.0874 29.6514 23.6301 29.6514H26.2556C31.0867 29.6514 35.0075 25.748 35.0075 20.9345V8.71687C35.0075 3.90334 31.0867 0 26.2556 0ZM10.5023 17.5038C9.52204 17.5038 8.75187 16.7161 8.75187 15.7534C8.75187 14.7907 9.53954 14.003 10.5023 14.003C11.465 14.003 12.2526 14.7907 12.2526 15.7534C12.2526 16.7161 11.4825 17.5038 10.5023 17.5038ZM17.5037 17.5038C16.5235 17.5038 15.7534 16.7161 15.7534 15.7534C15.7534 14.7907 16.541 14.003 17.5037 14.003C18.4665 14.003 19.2541 14.7907 19.2541 15.7534C19.2541 16.7161 18.484 17.5038 17.5037 17.5038ZM24.5053 17.5038C23.525 17.5038 22.7549 16.7161 22.7549 15.7534C22.7549 14.7907 23.5425 14.003 24.5053 14.003C25.468 14.003 26.2556 14.7907 26.2556 15.7534C26.2556 16.7161 25.4855 17.5038 24.5053 17.5038Z" fill="white"/>
</svg>
