<svg width="25" height="27" viewBox="0 0 25 27" fill="none" xmlns="http://www.w3.org/2000/svg">
<path d="M24.4951 7.134V18.866C24.4951 22.8 23.7191 25.4287 20.9951 26.4507C20.2031 26.7727 18.5191 27 17.5231 27H7.46711C6.47111 27 5.28712 26.7727 4.49512 26.4507C1.77112 25.4287 0.495117 22.8 0.495117 18.866V7.134C0.495117 2.038 3.09911 0 7.46711 0H17.5231C21.8911 0 24.4951 3.038 24.4951 7.134Z" fill="#FF5A78"/>
<path d="M20.9951 26.4507C20.1371 26.7497 19.3931 26.9897 18.3141 26.9897H7.49512C6.41612 26.9897 5.49512 27 4.49512 26.4507C4.95012 23.0187 8.53812 20.4507 12.8671 20.4507C17.1961 20.4507 20.5401 23.0187 20.9951 26.4507Z" fill="white"/>
<path d="M16.9951 11.7434C16.9951 14.3668 14.8722 16.5 12.2451 16.5C9.61802 16.5 7.49512 14.3668 7.49512 11.7434C7.49512 9.11997 9.61802 7 12.2451 7C14.8722 7 16.9951 9.11997 16.9951 11.7434Z" fill="white"/>
</svg>
